<?xml version="1.0" encoding="UTF-8"?>
<svg id="Layer_1" data-name="Layer 1" xmlns="http://www.w3.org/2000/svg" viewBox="0 0 256 256">
  <defs>
    <style>
      .cls-1 {
        fill: #fff;
      }

      .cls-2 {
        fill: #c66b3d;
      }
    </style>
  </defs>
  <rect class="cls-2" y=".2" width="256" height="256"/>
  <g>
    <path class="cls-1" d="M74.39,209.26c-4.18,0-7.57-3.45-7.57-7.71V60.79c0-4.26,3.39-7.71,7.57-7.71s7.57,3.45,7.57,7.71v140.76c0,4.26-3.39,7.71-7.57,7.71Z"/>
    <path class="cls-1" d="M144.45,134.21c-23.68,0-42.94-19.26-42.94-42.94s19.26-42.94,42.94-42.94,42.94,19.26,42.94,42.94-19.26,42.94-42.94,42.94ZM144.45,63.47c-15.33,0-27.8,12.47-27.8,27.8s12.47,27.8,27.8,27.8,27.8-12.47,27.8-27.8-12.47-27.8-27.8-27.8Z"/>
    <path class="cls-1" d="M179.82,209.46c-1.52,0-3.06-.46-4.4-1.41l-70.74-50.52c-3.4-2.43-4.19-7.16-1.76-10.57,2.43-3.4,7.16-4.19,10.57-1.76l70.74,50.52c3.4,2.43,4.19,7.16,1.76,10.57-1.48,2.07-3.81,3.17-6.17,3.17Z"/>
  </g>
</svg>